<svg width="20" height="29" viewBox="0 0 20 29" fill="none" xmlns="http://www.w3.org/2000/svg">
<path d="M15.7143 0H4.28572C3.14908 0 2.05899 0.458211 1.25527 1.27383C0.45154 2.08945 1.12613e-05 3.19567 1.12613e-05 4.34914V27.5445C-0.00098812 27.8 0.0645464 28.0512 0.18998 28.2727C0.315413 28.4941 0.49629 28.6781 0.714296 28.8058C0.931466 28.933 1.17781 29 1.42858 29C1.67935 29 1.9257 28.933 2.14287 28.8058L10 24.1957L17.8571 28.8058C18.0749 28.931 18.3212 28.996 18.5714 28.9942C18.8217 28.996 19.068 28.931 19.2857 28.8058C19.5037 28.6781 19.6846 28.4941 19.81 28.2727C19.9355 28.0512 20.001 27.8 20 27.5445V4.34914C20 3.19567 19.5485 2.08945 18.7447 1.27383C17.941 0.458211 16.8509 0 15.7143 0ZM17.1428 25.0365L10.7143 21.2673C10.4971 21.14 10.2508 21.0731 10 21.0731C9.74923 21.0731 9.50289 21.14 9.28572 21.2673L2.85715 25.0365V4.34914C2.85715 3.96465 3.00766 3.59591 3.27557 3.32403C3.54348 3.05216 3.90684 2.89942 4.28572 2.89942H15.7143C16.0932 2.89942 16.4565 3.05216 16.7244 3.32403C16.9923 3.59591 17.1428 3.96465 17.1428 4.34914V25.0365Z" fill="#211D1D"/>
</svg>
