<svg width="30" height="30" viewBox="0 0 30 30" fill="none" xmlns="http://www.w3.org/2000/svg">
<rect x="0.5" y="0.5" width="29" height="29" rx="3.5" fill="#F5F5F5" stroke="#036C8E"/>
<path d="M24 13H23V12C23 11.7348 22.8946 11.4804 22.7071 11.2929C22.5196 11.1054 22.2652 11 22 11C21.7348 11 21.4804 11.1054 21.2929 11.2929C21.1054 11.4804 21 11.7348 21 12V13H20C19.7348 13 19.4804 13.1054 19.2929 13.2929C19.1054 13.4804 19 13.7348 19 14C19 14.2652 19.1054 14.5196 19.2929 14.7071C19.4804 14.8946 19.7348 15 20 15H21V16C21 16.2652 21.1054 16.5196 21.2929 16.7071C21.4804 16.8946 21.7348 17 22 17C22.2652 17 22.5196 16.8946 22.7071 16.7071C22.8946 16.5196 23 16.2652 23 16V15H24C24.2652 15 24.5196 14.8946 24.7071 14.7071C24.8946 14.5196 25 14.2652 25 14C25 13.7348 24.8946 13.4804 24.7071 13.2929C24.5196 13.1054 24.2652 13 24 13ZM16.3 14.72C16.8336 14.2581 17.2616 13.6869 17.5549 13.045C17.8482 12.4032 18 11.7057 18 11C18 9.67392 17.4732 8.40215 16.5355 7.46447C15.5979 6.52678 14.3261 6 13 6C11.6739 6 10.4021 6.52678 9.46447 7.46447C8.52678 8.40215 8 9.67392 8 11C7.99999 11.7057 8.1518 12.4032 8.44513 13.045C8.73845 13.6869 9.16642 14.2581 9.7 14.72C8.30014 15.3539 7.11247 16.3775 6.27898 17.6685C5.4455 18.9596 5.00147 20.4633 5 22C5 22.2652 5.10536 22.5196 5.29289 22.7071C5.48043 22.8946 5.73478 23 6 23C6.26522 23 6.51957 22.8946 6.70711 22.7071C6.89464 22.5196 7 22.2652 7 22C7 20.4087 7.63214 18.8826 8.75736 17.7574C9.88258 16.6321 11.4087 16 13 16C14.5913 16 16.1174 16.6321 17.2426 17.7574C18.3679 18.8826 19 20.4087 19 22C19 22.2652 19.1054 22.5196 19.2929 22.7071C19.4804 22.8946 19.7348 23 20 23C20.2652 23 20.5196 22.8946 20.7071 22.7071C20.8946 22.5196 21 22.2652 21 22C20.9985 20.4633 20.5545 18.9596 19.721 17.6685C18.8875 16.3775 17.6999 15.3539 16.3 14.72V14.72ZM13 14C12.4067 14 11.8266 13.8241 11.3333 13.4944C10.8399 13.1648 10.4554 12.6962 10.2284 12.1481C10.0013 11.5999 9.94189 10.9967 10.0576 10.4147C10.1734 9.83279 10.4591 9.29824 10.8787 8.87868C11.2982 8.45912 11.8328 8.1734 12.4147 8.05764C12.9967 7.94189 13.5999 8.0013 14.1481 8.22836C14.6962 8.45542 15.1648 8.83994 15.4944 9.33329C15.8241 9.82664 16 10.4067 16 11C16 11.7956 15.6839 12.5587 15.1213 13.1213C14.5587 13.6839 13.7956 14 13 14Z" fill="#036C8E"/>
</svg>
