<svg xmlns="http://www.w3.org/2000/svg" viewBox="0 0 162.45 148.13"><g id="Layer_2" data-name="Layer 2"><g id="Logo"><path d="M77.52,98.67a41.11,41.11,0,0,1-16.82-3.9c-7.4-3.43-12.45-8.42-14.22-14a2.7,2.7,0,1,1,5.15-1.62c1.29,4.09,5.42,8,11.34,10.76,7.28,3.38,16,4.36,20.85,2.35a2.7,2.7,0,0,1,2.09,5A21.84,21.84,0,0,1,77.52,98.67Z"/><path d="M49.05,82.62a3.73,3.73,0,0,1-.46,0,2.71,2.71,0,0,1-2.2-3.12c1.25-7.21-.59-18.09-7.57-24.93a2.7,2.7,0,0,1,3.77-3.86C51,58.88,53.2,71.82,51.71,80.38A2.71,2.71,0,0,1,49.05,82.62Z"/><path d="M103.51,118.8a11.73,11.73,0,0,1-1.22-.06c-8.43-.81-13-10.9-13.66-13.35-1.78-6.5-1.39-13-1-20,.36-6.06.74-12.33-.4-18.83A30.23,30.23,0,0,0,76.69,48.23a2.7,2.7,0,0,1,3.45-4.16A35.58,35.58,0,0,1,92.57,65.65c1.24,7.13.85,13.71.47,20.08s-.75,12.59.8,18.23c.53,1.93,4,8.93,9,9.41a11.21,11.21,0,0,0,8-2.69,7.82,7.82,0,0,0,2.57-6V54.16a30.43,30.43,0,0,0-30.4-30.4c-7.11,0-14.71,3-22.56,9a2.7,2.7,0,0,1-3.26-4.3c8.81-6.68,17.5-10.07,25.82-10.07a35.84,35.84,0,0,1,35.8,35.8v50.51a13.15,13.15,0,0,1-4.34,10A16.54,16.54,0,0,1,103.51,118.8Z"/><path d="M39.78,53.8a2.64,2.64,0,0,1-1.46-.43,2.69,2.69,0,0,1-.8-3.73,85.2,85.2,0,0,1,6.67-8.9,2.7,2.7,0,1,1,4.1,3.51,79.3,79.3,0,0,0-6.23,8.32A2.71,2.71,0,0,1,39.78,53.8Z"/><path d="M69,131.19a68,68,0,0,1-8.27-.54,13.18,13.18,0,0,1-10.12-6.51c-3.22-5.69-2.23-12.78-1.27-19.64a67.61,67.61,0,0,0,.89-9.19A18.95,18.95,0,0,0,23.6,78a2.7,2.7,0,0,1-2.21-4.93A24.35,24.35,0,0,1,55.66,95.31a73.39,73.39,0,0,1-.94,9.94c-.87,6.24-1.7,12.13.59,16.17a7.77,7.77,0,0,0,6.11,3.87c12.1,1.5,19.29-.76,26.25-2.94,10-3.13,20.31-6.37,43.12,1.63a2.7,2.7,0,0,1-1.79,5.09c-21.12-7.4-30.15-4.57-39.72-1.57C83.49,129.32,77.54,131.19,69,131.19Z"/><path d="M22,78.55a2.57,2.57,0,0,1-.55-.06,2.7,2.7,0,0,1-2.1-3.19C22.08,62,31.69,53.55,37.41,49.58l.86-1a2.7,2.7,0,0,1,4.2,3.39l-1.11,1.37a2.87,2.87,0,0,1-.57.53C35.79,57.23,27,64.7,24.63,76.39A2.71,2.71,0,0,1,22,78.55Z"/><path d="M63.38,69a8.73,8.73,0,1,1,8.73-8.73A8.74,8.74,0,0,1,63.38,69Zm0-12a3.33,3.33,0,1,0,3.33,3.32A3.32,3.32,0,0,0,63.38,56.91Z"/><path d="M52.29,47.12A10.93,10.93,0,1,1,63.22,36.2,10.94,10.94,0,0,1,52.29,47.12Zm0-16.45a5.53,5.53,0,1,0,5.53,5.53A5.54,5.54,0,0,0,52.29,30.67Z"/><path d="M70.25,52.78A12.45,12.45,0,1,1,82.1,36.48h0a12.47,12.47,0,0,1-11.85,16.3Zm0-19.5a7.23,7.23,0,0,0-2.18.34,7.08,7.08,0,1,0,2.18-.34Z"/><path d="M108,148.13H54.46a27.78,27.78,0,0,1-24-13.85L3.7,87.92a27.79,27.79,0,0,1,0-27.7L30.47,13.85A27.78,27.78,0,0,1,54.46,0H108a27.78,27.78,0,0,1,24,13.85l26.77,46.37a27.74,27.74,0,0,1,0,27.7L132,134.28A27.78,27.78,0,0,1,108,148.13ZM54.46,5.4A22.38,22.38,0,0,0,35.14,16.55L8.38,62.92a22.34,22.34,0,0,0,0,22.3l26.76,46.36a22.38,22.38,0,0,0,19.32,11.15H108a22.36,22.36,0,0,0,19.32-11.15l26.77-46.36a22.37,22.37,0,0,0,0-22.3L127.31,16.55h0A22.36,22.36,0,0,0,108,5.4Z"/></g></g></svg>