<svg xmlns="http://www.w3.org/2000/svg" viewBox="0 0 198.05 355.74"><g id="Layer_2" data-name="Layer 2"><g id="Logo"><path d="M11.48,340.12c1.4,0,1.4,1.58,5.62,5.27,6.16,5.28,13.37,6.86,20.58,6.86,11.08,0,18.81-3.17,23.74-9,4.92-6,7.21-14.59,7.21-25.67V305C60,313.74,50.51,316.2,40.49,316.2c-11.08,0-19.17-4.57-24.62-11.43-6.15-7.73-9-18.46-9-29.36s3-21.81,9.31-29.54c5.46-6.69,13.54-11.08,24.1-11.08,14.77,0,22.33,5.45,28.31,10.37V236a1.23,1.23,0,1,1,2.46,0v81.59c0,11.6-2.46,20.75-7.91,27.08s-13.9,9.67-25.5,9.67c-9.5,0-16.53-2.29-22.69-7.56-2.81-2.46-4.57-4.57-4.57-5.45C10.42,340.64,10.77,340.12,11.48,340.12Zm57.15-38V247.62c-6-4.92-13.19-10.72-28.31-10.72-10.2,0-17.76,4.39-22.86,11.08-5.45,7.21-8.09,17-8.09,27.43s2.46,20.57,8.09,27.78c5.1,6.68,12.66,10.9,23,10.9C52.45,314.09,60.71,310.4,68.63,302.14Z"/><path d="M37.68,355.74c-9.94,0-17.21-2.44-23.58-7.9-3.36-2.93-5-5.12-5-6.49a2.41,2.41,0,0,1,2.43-2.61c1.38,0,2,.82,2.91,1.87A29.23,29.23,0,0,0,18,344.36c5.11,4.38,11.55,6.52,19.67,6.52,10.28,0,17.91-2.86,22.69-8.49s6.88-13.73,6.88-24.78v-9.46c-7.3,6.42-15.89,9.43-26.76,9.43-10.59,0-19.48-4.13-25.69-11.95-6-7.51-9.27-18.25-9.27-30.22S9,252.58,15.16,245,30,233.41,40.32,233.41c13.22,0,21,4.32,26.93,8.9V236a2.61,2.61,0,1,1,5.21,0v81.59c0,12.38-2.7,21.53-8.24,28C58.42,352.32,49.49,355.74,37.68,355.74Zm-26.2-15.62v1.37h0Zm.31,1.12v0S11.79,341.24,11.79,341.24Zm28.53-103a26.39,26.39,0,0,0-21.77,10.54c-5,6.66-7.81,16.11-7.81,26.6,0,10.92,2.77,20.49,7.8,26.93,5.26,6.89,12.64,10.38,22,10.38,11.25,0,19-3.24,26.76-11.14V248.27C61.7,243.71,54.67,238.27,40.32,238.27Z"/><path d="M98.17,196.1a2,2,0,0,1,2.1-1.93,2,2,0,0,1,1.94,1.93,2,2,0,0,1-1.94,2.11A2,2,0,0,1,98.17,196.1Zm2.28,38.69a1.2,1.2,0,0,1,1.23,1.23v79.13a1.23,1.23,0,0,1-2.46,0V236A1.2,1.2,0,0,1,100.45,234.79Z"/><path d="M100.45,317.75a2.58,2.58,0,0,1-2.61-2.6V236a2.61,2.61,0,1,1,5.22,0v79.13A2.58,2.58,0,0,1,100.45,317.75Zm0-81.59h0v0Zm-.18-36.57a3.41,3.41,0,0,1-3.48-3.49,3.37,3.37,0,0,1,3.48-3.31,3.31,3.31,0,0,1,3.31,3.31A3.36,3.36,0,0,1,100.27,199.59Zm0-4.05c-.42,0-.73.24-.73.56a.66.66,0,0,0,.73.74c.33,0,.56-.31.56-.74A.58.58,0,0,0,100.27,195.54Z"/><path d="M129.46,340.12c1.41,0,1.41,1.58,5.63,5.27,6.16,5.28,13.36,6.86,20.57,6.86,11.08,0,18.82-3.17,23.74-9,4.93-6,7.21-14.59,7.21-25.67V305c-8.61,8.79-18.11,11.25-28.13,11.25-11.08,0-19.17-4.57-24.62-11.43-6.16-7.73-9-18.46-9-29.36s3-21.81,9.32-29.54c5.45-6.69,13.54-11.08,24.09-11.08,14.77,0,22.33,5.45,28.31,10.37V236a1.23,1.23,0,1,1,2.46,0v81.59c0,11.6-2.46,20.75-7.91,27.08s-13.89,9.67-25.5,9.67c-9.49,0-16.52-2.29-22.68-7.56-2.81-2.46-4.57-4.57-4.57-5.45C128.41,340.64,128.76,340.12,129.46,340.12Zm57.15-38V247.62c-6-4.92-13.19-10.72-28.31-10.72-10.2,0-17.76,4.39-22.86,11.08-5.45,7.21-8.09,17-8.09,27.43s2.47,20.57,8.09,27.78c5.1,6.68,12.66,10.9,23,10.9C170.43,314.09,178.7,310.4,186.61,302.14Z"/><path d="M155.66,355.74c-9.93,0-17.21-2.44-23.57-7.9-3.36-2.93-5.06-5.12-5.06-6.49a2.41,2.41,0,0,1,2.43-2.61c1.39,0,2.06.82,2.91,1.87a29.52,29.52,0,0,0,3.63,3.75c5.11,4.38,11.55,6.52,19.66,6.52,10.28,0,17.92-2.86,22.69-8.49s6.89-13.73,6.89-24.78v-9.46c-7.3,6.42-15.89,9.43-26.76,9.43-10.6,0-19.48-4.13-25.7-11.95-6-7.51-9.26-18.25-9.26-30.22s3.42-22.83,9.63-30.41S148,233.41,158.3,233.41c13.23,0,21,4.32,26.94,8.9V236a2.61,2.61,0,1,1,5.21,0v81.59c0,12.38-2.7,21.53-8.25,28C176.4,352.32,167.47,355.74,155.66,355.74Zm-26.2-15.62v1.37h0Zm.31,1.12v0S129.77,341.24,129.77,341.24Zm28.53-103a26.37,26.37,0,0,0-21.76,10.54c-5,6.66-7.81,16.11-7.81,26.6,0,10.92,2.77,20.49,7.8,26.93,5.25,6.89,12.64,10.38,21.95,10.38,11.25,0,19-3.24,26.76-11.14V248.27C179.69,243.71,172.66,238.27,158.3,238.27Z"/><path d="M94.51,118.81a49.49,49.49,0,0,1-20.21-4.69c-8.84-4.1-14.87-10-17-16.72a2.7,2.7,0,0,1,5.15-1.62c1.65,5.22,6.65,10,14.11,13.44,9,4.17,19.85,5.38,25.82,2.88a2.7,2.7,0,1,1,2.09,5A26.1,26.1,0,0,1,94.51,118.81Z"/><path d="M59.9,99.29a2.38,2.38,0,0,1-.46,0,2.69,2.69,0,0,1-2.2-3.12c1.54-8.91-.73-22.36-9.38-30.82a2.7,2.7,0,1,1,3.78-3.86c10,9.83,12.7,25.35,10.92,35.6A2.7,2.7,0,0,1,59.9,99.29Z"/><path d="M126.13,143.29c-.51,0-1,0-1.44-.07-9.93-.95-15.3-12.9-16.1-15.81-2.14-7.81-1.67-15.72-1.17-24.1.44-7.4.9-15.06-.49-23A37.42,37.42,0,0,0,93.88,57.61a2.7,2.7,0,0,1,3.45-4.15,42.75,42.75,0,0,1,14.92,25.89c1.49,8.6,1,16.57.56,24.28-.47,7.92-.92,15.4,1,22.35.67,2.44,5,11.26,11.4,11.87a14.2,14.2,0,0,0,10.14-3.42,10,10,0,0,0,3.32-7.74V65.27a37.6,37.6,0,0,0-37.55-37.55c-8.79,0-18.13,3.71-27.79,11a2.7,2.7,0,1,1-3.26-4.3c10.61-8.05,21.06-12.13,31.05-12.13a43,43,0,0,1,43,42.95v61.42A15.41,15.41,0,0,1,139,138.42,19.53,19.53,0,0,1,126.13,143.29Z"/><path d="M48.63,64.26a2.7,2.7,0,0,1-2.27-4.16,101.91,101.91,0,0,1,8.07-10.76,2.7,2.7,0,0,1,4.11,3.51A96.75,96.75,0,0,0,50.9,63,2.69,2.69,0,0,1,48.63,64.26Z"/><path d="M84.18,158.35a81.45,81.45,0,0,1-10-.65,15.38,15.38,0,0,1-11.86-7.64c-3.82-6.73-2.63-15.25-1.47-23.49A85.21,85.21,0,0,0,62,115.31,23.62,23.62,0,0,0,28.71,93.77a2.7,2.7,0,0,1-2.21-4.93,29,29,0,0,1,40.85,26.47,88.46,88.46,0,0,1-1.14,12c-1.07,7.68-2.09,14.94.79,20a10,10,0,0,0,7.87,5c14.83,1.84,23.64-.92,32.16-3.59,12.6-4,24.51-7.69,52.06,2a2.7,2.7,0,1,1-1.78,5.09c-25.87-9.06-36.94-5.59-48.67-1.91C101.64,156.1,94.46,158.35,84.18,158.35Z"/><path d="M27,94.34a2.56,2.56,0,0,1-.55,0,2.7,2.7,0,0,1-2.1-3.19c3.3-16,14.93-26.2,21.81-31l1.1-1.35a2.7,2.7,0,1,1,4.19,3.4L50.1,63.84a2.65,2.65,0,0,1-.58.53c-6.15,4.2-16.92,13.4-19.89,27.82A2.7,2.7,0,0,1,27,94.34Z"/><path d="M77.33,82.69a10,10,0,1,1,10-10A10,10,0,0,1,77.33,82.69Zm0-14.66A4.63,4.63,0,1,0,82,72.66,4.63,4.63,0,0,0,77.33,68Z"/><path d="M63.83,56.14A12.71,12.71,0,1,1,76.54,43.43,12.72,12.72,0,0,1,63.83,56.14Zm0-20a7.31,7.31,0,1,0,7.31,7.31A7.31,7.31,0,0,0,63.83,36.12Z"/><path d="M85.68,63A14.56,14.56,0,1,1,99.53,44h0A14.57,14.57,0,0,1,85.68,63Zm0-23.72a9.16,9.16,0,1,0,8.7,6.33h0a9.16,9.16,0,0,0-8.7-6.33Z"/><path d="M134.69,179H63.36a27.76,27.76,0,0,1-24-13.86L3.7,103.33a27.79,27.79,0,0,1,0-27.7L39.37,13.85A27.78,27.78,0,0,1,63.36,0h71.33a27.79,27.79,0,0,1,24,13.85l35.67,61.78a27.79,27.79,0,0,1,0,27.7L158.68,165.1A27.78,27.78,0,0,1,134.69,179ZM63.36,5.4A22.36,22.36,0,0,0,44,16.55L8.38,78.33a22.32,22.32,0,0,0,0,22.3L44,162.41a22.37,22.37,0,0,0,19.32,11.14h71.33A22.37,22.37,0,0,0,154,162.41l35.67-61.78a22.37,22.37,0,0,0,0-22.3L154,16.55h0A22.35,22.35,0,0,0,134.69,5.4Z"/></g></g></svg>