<?xml version="1.0" encoding="utf-8"?>
<!-- Generator: Adobe Illustrator 26.1.0, SVG Export Plug-In . SVG Version: 6.00 Build 0)  -->
<svg version="1.1" id="Layer_1" xmlns="http://www.w3.org/2000/svg" xmlns:xlink="http://www.w3.org/1999/xlink" x="0px" y="0px"
	 viewBox="0 0 373.9 163.2" style="enable-background:new 0 0 373.9 163.2;" xml:space="preserve">
<style type="text/css">
	.st0{fill:#FFFCF8;}
</style>
<g id="Layer_2_00000043449395564450712350000013905738334574285240_">
	<g id="Logo">
		<path class="st0" d="M77.5,106.2c-5.8-0.1-11.6-1.4-16.8-3.9c-7.4-3.4-12.5-8.4-14.2-14c-0.5-1.4,0.3-2.9,1.7-3.4
			c1.4-0.5,2.9,0.3,3.4,1.7c0,0,0,0.1,0,0.1c1.3,4.1,5.4,8,11.3,10.8c7.3,3.4,16,4.4,20.9,2.3c1.4-0.6,3,0.1,3.5,1.5s-0.1,3-1.5,3.5
			l0,0C83.2,105.8,80.4,106.3,77.5,106.2z"/>
		<path class="st0" d="M49,90.2c-0.2,0-0.3,0-0.5,0c-1.5-0.3-2.5-1.6-2.2-3.1c0,0,0,0,0,0c1.2-7.2-0.6-18.1-7.6-24.9
			c-1-1.1-1-2.8,0.1-3.8c1-1,2.6-1,3.7,0c8.4,8.2,10.6,21.1,9.1,29.7C51.5,89.2,50.4,90.1,49,90.2z"/>
		<path class="st0" d="M103.5,126.3c-0.4,0-0.8,0-1.2-0.1c-8.4-0.8-13-10.9-13.7-13.3c-1.8-6.5-1.4-13-1-20
			c0.4-6.1,0.7-12.3-0.4-18.8c-1.2-7.2-4.9-13.7-10.5-18.3c-1.1-1-1.3-2.7-0.4-3.8c1-1.1,2.7-1.3,3.8-0.4l0,0
			c6.6,5.5,11,13.1,12.4,21.6c1.2,7.1,0.8,13.7,0.5,20.1s-0.8,12.6,0.8,18.2c0.5,1.9,4,8.9,9,9.4c2.9,0.2,5.8-0.8,8-2.7
			c1.7-1.5,2.6-3.7,2.6-6V61.7c0-16.8-13.6-30.4-30.4-30.4c-7.1,0-14.7,3-22.6,9c-1.2,0.9-2.9,0.7-3.8-0.5c-0.9-1.2-0.7-2.9,0.5-3.8
			l0,0c8.8-6.7,17.5-10.1,25.8-10.1c19.8,0,35.8,16,35.8,35.8v50.5c0.1,3.8-1.5,7.5-4.3,10C111.4,124.9,107.5,126.3,103.5,126.3z"/>
		<path class="st0" d="M39.8,61.3c-0.5,0-1-0.2-1.5-0.4c-1.2-0.8-1.6-2.5-0.8-3.7c0,0,0,0,0,0c2-3.1,4.3-6.1,6.7-8.9
			c1-1.1,2.7-1.2,3.8-0.2c1.1,1,1.2,2.6,0.3,3.7c-2.3,2.6-4.3,5.4-6.2,8.3C41.6,60.9,40.7,61.3,39.8,61.3z"/>
		<path class="st0" d="M69,138.7c-2.8,0-5.5-0.2-8.3-0.5c-4.2-0.4-8-2.8-10.1-6.5c-3.2-5.7-2.2-12.8-1.2-19.7c0.5-3,0.8-6.1,0.9-9.2
			c0-10.5-8.5-18.9-19-18.9c-2.6,0-5.2,0.6-7.6,1.6c-1.4,0.6-3,0-3.6-1.4c-0.6-1.4,0-3,1.4-3.6c12.3-5.5,26.7,0,32.2,12.3
			c1.4,3.1,2.1,6.5,2.1,9.9c-0.1,3.3-0.4,6.7-0.9,9.9c-0.9,6.2-1.7,12.1,0.6,16.2c1.3,2.2,3.6,3.7,6.1,3.9
			c12.1,1.5,19.3-0.8,26.2-2.9c10-3.1,20.3-6.4,43.1,1.6c1.4,0.4,2.2,1.9,1.8,3.4c-0.4,1.4-1.9,2.2-3.4,1.8c-0.1,0-0.1,0-0.2-0.1
			c-21.1-7.4-30.2-4.6-39.7-1.6C83.5,136.9,77.5,138.7,69,138.7z"/>
		<path class="st0" d="M22,86.1c-0.2,0-0.4,0-0.5-0.1c-1.5-0.3-2.4-1.7-2.1-3.2c0,0,0,0,0,0c2.7-13.3,12.4-21.7,18.1-25.7l0.9-1
			c1-1.1,2.7-1.3,3.8-0.3c1.1,0.9,1.3,2.5,0.4,3.7l-1.1,1.4c-0.2,0.2-0.4,0.4-0.6,0.5C35.8,64.8,27,72.3,24.6,84
			C24.4,85.2,23.3,86.1,22,86.1z"/>
		<path class="st0" d="M63.4,76.5c-4.8,0-8.7-3.9-8.7-8.7c0-4.8,3.9-8.7,8.7-8.7s8.7,3.9,8.7,8.7S68.2,76.5,63.4,76.5L63.4,76.5z
			 M63.4,64.5c-1.8,0-3.3,1.5-3.3,3.3c0,1.8,1.5,3.3,3.3,3.3c1.8,0,3.3-1.5,3.3-3.3c0,0,0,0,0,0C66.7,66,65.3,64.5,63.4,64.5
			C63.4,64.4,63.4,64.4,63.4,64.5L63.4,64.5z"/>
		<path class="st0" d="M52.3,54.7c-6,0-10.9-4.9-10.9-10.9s4.9-10.9,10.9-10.9s10.9,4.9,10.9,10.9C63.2,49.8,58.3,54.7,52.3,54.7z
			 M52.3,38.2c-3.1,0-5.5,2.5-5.5,5.5s2.5,5.5,5.5,5.5s5.5-2.5,5.5-5.5l0,0C57.8,40.7,55.3,38.2,52.3,38.2z"/>
		<path class="st0" d="M70.2,60.3c-6.9,0-12.4-5.6-12.4-12.5c0-6.9,5.6-12.4,12.5-12.4c5.4,0,10.2,3.5,11.8,8.6l0,0
			c2.1,6.6-1.5,13.6-8,15.7C72.8,60.1,71.5,60.3,70.2,60.3L70.2,60.3z M70.2,40.8c-0.7,0-1.5,0.1-2.2,0.3c-3.7,1.2-5.8,5.2-4.6,8.9
			c1.2,3.7,5.2,5.8,8.9,4.6c3.7-1.2,5.8-5.2,4.6-8.9C76,42.8,73.3,40.8,70.2,40.8z"/>
		<path class="st0" d="M108,155.7H54.5c-9.9,0-19-5.3-24-13.9L3.7,95.4c-4.9-8.6-4.9-19.1,0-27.7l26.8-46.4c5-8.6,14.1-13.8,24-13.9
			H108c9.9,0,19,5.3,24,13.9l26.8,46.4c4.9,8.6,4.9,19.1,0,27.7L132,141.8C127,150.4,117.9,155.6,108,155.7z M54.5,12.9
			c-8,0-15.3,4.3-19.3,11.1L8.4,70.4c-4,6.9-4,15.4,0,22.3l26.8,46.4c4,6.9,11.4,11.1,19.3,11.1H108c8,0,15.3-4.3,19.3-11.1
			l26.8-46.4c4-6.9,4-15.4,0-22.3l-26.8-46.4l0,0c-4-6.9-11.3-11.1-19.3-11.1H54.5z"/>
		<path class="st0" d="M221,163.2c-10,0-17.3-2.4-23.7-7.9c-5.1-4.5-5.1-6.1-5.1-6.6c-0.1-1.4,1-2.6,2.5-2.7c0,0,0.1,0,0.1,0
			c1.4,0,2.2,0.9,3,1.9c1.1,1.4,2.3,2.6,3.6,3.7c5.1,4.4,11.5,6.5,19.6,6.5c10.2,0,17.8-2.8,22.6-8.4s6.9-13.7,6.9-24.7v-9.2
			c-7.3,6.3-15.8,9.3-26.6,9.3c-10.6,0-19.6-4.2-25.8-12c-6-7.5-9.3-18.3-9.3-30.3s3.4-22.9,9.7-30.5s14.9-11.6,25.2-11.6
			c13.1,0,20.9,4.2,26.8,8.8v-6c0-1.5,1.2-2.7,2.7-2.7c1.5,0,2.7,1.2,2.7,2.7V125c0,12.4-2.7,21.6-8.3,28.1
			C241.8,159.8,232.9,163.2,221,163.2z M223.6,45.7c-8.5-0.2-16.5,3.7-21.6,10.5c-5,6.6-7.8,16-7.8,26.5c0,10.9,2.8,20.4,7.8,26.9
			c5.2,6.9,12.6,10.3,21.9,10.3c11.2,0,19-3.2,26.6-11.1V55.7C244.9,51.1,237.9,45.7,223.6,45.7z"/>
		<path class="st0" d="M283.8,125.2c-1.5,0-2.7-1.2-2.7-2.7c0,0,0,0,0-0.1V43.3c0-1.5,1.2-2.7,2.7-2.7c1.5,0,2.7,1.2,2.7,2.7
			c0,0,0,0,0,0v79.1C286.5,124,285.3,125.2,283.8,125.2C283.8,125.2,283.8,125.2,283.8,125.2z M283.6,7c-1.9,0-3.6-1.5-3.6-3.5
			c0,0,0-0.1,0-0.1c0-1.9,1.6-3.5,3.5-3.4c0,0,0,0,0,0c1.9,0,3.4,1.5,3.4,3.4C287,5.4,285.5,7,283.6,7C283.6,7,283.6,7,283.6,7z
			 M283.6,3c-0.4,0-0.6,0.2-0.6,0.4c0,0.3,0.2,0.6,0.5,0.6c0,0,0.1,0,0.2,0c0.3,0,0.4-0.2,0.4-0.6C284,3.2,283.8,3,283.6,3z"/>
		<path class="st0" d="M339,163.2c-10,0-17.3-2.4-23.7-7.9c-5.1-4.5-5.1-6.1-5.1-6.6c-0.1-1.4,1-2.6,2.4-2.7c0.1,0,0.1,0,0.2,0
			c1.5,0,2.2,0.9,3,1.9c1.1,1.4,2.3,2.6,3.6,3.7c5.1,4.4,11.5,6.5,19.6,6.5c10.2,0,17.9-2.8,22.6-8.4s6.9-13.7,6.9-24.7v-9.2
			c-7.3,6.3-15.8,9.3-26.6,9.3c-10.6,0-19.6-4.2-25.8-12c-6-7.5-9.3-18.3-9.3-30.3s3.4-22.9,9.7-30.5s14.9-11.6,25.2-11.6
			c13.1,0,20.9,4.2,26.8,8.8v-6c0-1.5,1.2-2.7,2.7-2.7c1.5,0,2.7,1.2,2.7,2.7c0,0,0,0,0,0V125c0,12.4-2.7,21.6-8.3,28.1
			C359.8,159.8,350.8,163.2,339,163.2z M341.6,45.7c-8.5-0.2-16.5,3.7-21.6,10.5c-5,6.6-7.8,16-7.8,26.5c0,10.9,2.8,20.4,7.8,26.9
			c5.2,6.9,12.6,10.3,21.9,10.3c11.2,0,19-3.2,26.6-11.1V55.7C362.9,51.1,355.9,45.7,341.6,45.7L341.6,45.7z"/>
	</g>
</g>
</svg>
