<svg xmlns="http://www.w3.org/2000/svg" viewBox="0 0 374.69 163.01"><defs><style>.cls-1{fill:#211d1d;}</style></defs><g id="Layer_2" data-name="Layer 2"><g id="Logo"><path class="cls-1" d="M188.83,145.6c2.46,0,2.82,1.58,7.21,5.1,5.63,4.57,12.13,6,18.64,6,9.85,0,16.71-2.82,20.93-7.74,4.39-5.28,6.5-12.84,6.5-22.33V114.83c-7.91,7.21-16.53,9.49-26,9.49-11.08,0-19.17-4.4-25-11.08-6.51-7.73-9.85-18.64-9.85-30.07,0-10.9,3.17-22,9.85-29.71,5.62-6.69,13.89-11.08,24.79-11.08a39.79,39.79,0,0,1,26.2,9.14V46.07a3.87,3.87,0,0,1,7.74,0v79.48c0,12.13-3,21.63-9,28-5.8,6.33-14.42,9.5-26,9.5-9.32,0-16.18-1.94-22.51-6.69-4.22-2.63-6.68-5.1-6.68-7.38A3.19,3.19,0,0,1,188.83,145.6Zm53.28-38.16V58.73c-5.27-4.39-12.13-9.67-25.32-9.67a24.77,24.77,0,0,0-20.22,9.67c-5.1,6.33-7.39,15-7.39,24.44,0,9.67,2.29,18.47,7.39,25,4.57,5.81,11.08,9.32,20.22,9.32C227.52,117.46,235.25,114.3,242.11,107.44Z"/><path class="cls-1" d="M275.34,4.75a4.84,4.84,0,0,1,9.67,0,4.84,4.84,0,1,1-9.67,0Zm5.1,37.63a3.75,3.75,0,0,1,3.87,3.69V120.8a3.87,3.87,0,0,1-7.74,0V46.07A3.75,3.75,0,0,1,280.44,42.38Z"/><path class="cls-1" d="M313.68,145.6c2.46,0,2.81,1.58,7.21,5.1,5.62,4.57,12.13,6,18.64,6,9.84,0,16.7-2.82,20.92-7.74,4.4-5.28,6.51-12.84,6.51-22.33V114.83c-7.92,7.21-16.53,9.49-26,9.49-11.08,0-19.17-4.4-25-11.08-6.5-7.73-9.84-18.64-9.84-30.07,0-10.9,3.16-22,9.84-29.71,5.63-6.69,13.89-11.08,24.8-11.08A39.83,39.83,0,0,1,367,51.52V46.07a3.87,3.87,0,0,1,7.73,0v79.48c0,12.13-3,21.63-9,28-5.81,6.33-14.42,9.5-26,9.5-9.32,0-16.18-1.94-22.51-6.69-4.22-2.63-6.68-5.1-6.68-7.38A3.19,3.19,0,0,1,313.68,145.6ZM367,107.44V58.73c-5.28-4.39-12.14-9.67-25.33-9.67a24.8,24.8,0,0,0-20.22,9.67c-5.1,6.33-7.38,15-7.38,24.44,0,9.67,2.28,18.47,7.38,25,4.58,5.81,11.08,9.32,20.22,9.32C352.36,117.46,360.1,114.3,367,107.44Z"/><path class="cls-1" d="M78.33,106.9a42.06,42.06,0,0,1-17.17-4c-7.61-3.53-12.81-8.68-14.65-14.52a3.5,3.5,0,0,1,6.68-2.11c1.22,3.89,5.2,7.63,10.91,10.28,7.1,3.29,15.6,4.28,20.21,2.34a3.5,3.5,0,1,1,2.7,6.46A22.7,22.7,0,0,1,78.33,106.9Z"/><path class="cls-1" d="M49.85,90.86a3.21,3.21,0,0,1-.6-.06,3.5,3.5,0,0,1-2.85-4c1.22-7-.56-17.58-7.34-24.22a3.5,3.5,0,1,1,4.89-5C52.54,66,54.82,79.2,53.3,88A3.5,3.5,0,0,1,49.85,90.86Z"/><path class="cls-1" d="M104.38,127c-.46,0-.92,0-1.37-.06-9-.86-13.6-11.22-14.35-13.94-1.82-6.63-1.42-13.24-1-20.24.36-6,.73-12.23-.38-18.65A29.48,29.48,0,0,0,77,56.28a3.5,3.5,0,1,1,4.47-5.38A36.34,36.34,0,0,1,94.16,73c1.26,7.22.86,13.85.48,20.27s-.74,12.45.77,18c.48,1.75,3.77,8.4,8.27,8.83a10.34,10.34,0,0,0,7.35-2.49,7,7,0,0,0,2.31-5.41V61.59A29.63,29.63,0,0,0,83.74,32c-6.94,0-14.36,3-22.07,8.8a3.5,3.5,0,1,1-4.23-5.57c9-6.79,17.8-10.23,26.3-10.23a36.63,36.63,0,0,1,36.6,36.59v50.52a13.92,13.92,0,0,1-4.6,10.59A17.47,17.47,0,0,1,104.38,127Z"/><path class="cls-1" d="M40.58,62a3.47,3.47,0,0,1-1.89-.56,3.5,3.5,0,0,1-1-4.83,84.53,84.53,0,0,1,6.74-9,3.5,3.5,0,1,1,5.32,4.55,76.35,76.35,0,0,0-6.17,8.23A3.5,3.5,0,0,1,40.58,62Z"/><path class="cls-1" d="M69.72,139.41a67.26,67.26,0,0,1-8.26-.53A13.9,13.9,0,0,1,50.76,132c-3.37-6-2.36-13.17-1.38-20.16a68.07,68.07,0,0,0,.88-9.08A18.15,18.15,0,0,0,24.73,86.2a3.5,3.5,0,1,1-2.87-6.39,25.16,25.16,0,0,1,35.4,22.94,73.12,73.12,0,0,1-.95,10c-.85,6.1-1.66,11.86.49,15.66a6.89,6.89,0,0,0,5.52,3.47c11.92,1.48,18.72-.65,25.91-2.9,10.1-3.18,20.56-6.45,43.62,1.63a3.5,3.5,0,1,1-2.31,6.61c-20.87-7.32-29.38-4.65-39.22-1.57C84.7,137.47,78.5,139.41,69.72,139.41Z"/><path class="cls-1" d="M22.79,86.79a3.36,3.36,0,0,1-.71-.08,3.5,3.5,0,0,1-2.73-4.13C22.13,69.09,31.83,60.5,37.67,56.43l.78-1a3.5,3.5,0,1,1,5.44,4.41l-1.11,1.36a3.42,3.42,0,0,1-.74.68C37.14,65.26,28.56,72.58,26.21,84A3.5,3.5,0,0,1,22.79,86.79Z"/><path class="cls-1" d="M64.18,77.2a9.53,9.53,0,1,1,9.53-9.53A9.54,9.54,0,0,1,64.18,77.2Zm0-12a2.53,2.53,0,1,0,2.53,2.52A2.52,2.52,0,0,0,64.18,65.15Z"/><path class="cls-1" d="M53.09,55.36A11.73,11.73,0,1,1,64.82,43.63,11.74,11.74,0,0,1,53.09,55.36Zm0-16.45a4.73,4.73,0,1,0,4.73,4.72A4.73,4.73,0,0,0,53.09,38.91Z"/><path class="cls-1" d="M71.07,61a13.25,13.25,0,1,1,6-25,13.12,13.12,0,0,1,6.58,7.71A13.25,13.25,0,0,1,71.07,61Zm0-19.5A6.25,6.25,0,1,0,77,45.83a6.27,6.27,0,0,0-5.93-4.32Z"/><path class="cls-1" d="M108.79,156.37H55.26a28.57,28.57,0,0,1-24.68-14.25L3.81,95.75a28.55,28.55,0,0,1,0-28.5L30.58,20.89A28.57,28.57,0,0,1,55.26,6.64h53.53a28.6,28.6,0,0,1,24.69,14.25l26.77,46.36a28.6,28.6,0,0,1,0,28.5l-26.77,46.37A28.6,28.6,0,0,1,108.79,156.37ZM55.26,13.64A21.56,21.56,0,0,0,36.64,24.39L9.87,70.75a21.55,21.55,0,0,0,0,21.5l26.77,46.37a21.56,21.56,0,0,0,18.62,10.75h53.53a21.55,21.55,0,0,0,18.62-10.75l26.77-46.37a21.55,21.55,0,0,0,0-21.5L127.41,24.39h0a21.55,21.55,0,0,0-18.62-10.75Z"/></g></g></svg>