<?xml version="1.0" encoding="utf-8"?>
<!-- Generator: Adobe Illustrator 26.1.0, SVG Export Plug-In . SVG Version: 6.00 Build 0)  -->
<svg version="1.1" id="Layer_1" xmlns="http://www.w3.org/2000/svg" xmlns:xlink="http://www.w3.org/1999/xlink" x="0px" y="0px"
	 viewBox="0 0 374.7 163" style="enable-background:new 0 0 374.7 163;" xml:space="preserve">
<style type="text/css">
	.st0{fill:#FFFCF8;}
</style>
<g id="Layer_2_00000095312306565400806310000004620234015803706274_">
	<g id="Logo">
		<path class="st0" d="M188.8,145.6c2.5,0,2.8,1.6,7.2,5.1c5.6,4.6,12.1,6,18.6,6c9.9,0,16.7-2.8,20.9-7.7
			c4.4-5.3,6.5-12.8,6.5-22.3v-11.8c-7.9,7.2-16.5,9.5-26,9.5c-11.1,0-19.2-4.4-25-11.1c-6.5-7.7-9.9-18.6-9.9-30.1
			c0-10.9,3.2-22,9.9-29.7c5.6-6.7,13.9-11.1,24.8-11.1c9.5-0.2,18.8,3,26.2,9.1v-5.4c0-2.1,1.7-3.9,3.9-3.9c2.1,0,3.9,1.7,3.9,3.9
			l0,0v79.5c0,12.1-3,21.6-9,28c-5.8,6.3-14.4,9.5-26,9.5c-9.3,0-16.2-1.9-22.5-6.7c-4.2-2.6-6.7-5.1-6.7-7.4
			c-0.1-1.8,1.2-3.3,3-3.4C188.7,145.6,188.8,145.6,188.8,145.6z M242.1,107.4V58.7c-5.3-4.4-12.1-9.7-25.3-9.7
			c-7.9-0.2-15.4,3.4-20.2,9.7c-5.1,6.3-7.4,15-7.4,24.4c0,9.7,2.3,18.5,7.4,25c4.6,5.8,11.1,9.3,20.2,9.3
			C227.5,117.5,235.2,114.3,242.1,107.4z"/>
		<path class="st0" d="M275.3,4.8c0.1-2.7,2.4-4.7,5.1-4.6c2.5,0.1,4.5,2.1,4.6,4.6c0.1,2.7-1.9,4.9-4.6,5.1s-4.9-1.9-5.1-4.6
			C275.3,5,275.3,4.9,275.3,4.8z M280.4,42.4c2.1-0.1,3.8,1.6,3.9,3.6c0,0,0,0,0,0.1v74.7c0,2.1-1.7,3.9-3.9,3.9
			c-2.1,0-3.9-1.7-3.9-3.9V46.1C276.6,44,278.3,42.3,280.4,42.4L280.4,42.4z"/>
		<path class="st0" d="M313.7,145.6c2.5,0,2.8,1.6,7.2,5.1c5.6,4.6,12.1,6,18.6,6c9.8,0,16.7-2.8,20.9-7.7
			c4.4-5.3,6.5-12.8,6.5-22.3v-11.8c-7.9,7.2-16.5,9.5-26,9.5c-11.1,0-19.2-4.4-25-11.1c-6.5-7.7-9.8-18.6-9.8-30.1
			c0-10.9,3.2-22,9.8-29.7c5.6-6.7,13.9-11.1,24.8-11.1c9.6-0.2,18.9,3,26.2,9.1V46c0.1-2.1,1.9-3.8,4.1-3.7c2,0.1,3.6,1.7,3.7,3.7
			v79.5c0,12.1-3,21.6-9,28c-5.8,6.3-14.4,9.5-26,9.5c-9.3,0-16.2-1.9-22.5-6.7c-4.2-2.6-6.7-5.1-6.7-7.4c-0.1-1.8,1.2-3.3,3-3.4
			C313.6,145.6,313.6,145.6,313.7,145.6z M367,107.4V58.7c-5.3-4.4-12.1-9.7-25.3-9.7c-7.9-0.2-15.4,3.4-20.2,9.7
			c-5.1,6.3-7.4,15-7.4,24.4c0,9.7,2.3,18.5,7.4,25c4.6,5.8,11.1,9.3,20.2,9.3C352.4,117.5,360.1,114.3,367,107.4z"/>
		<path class="st0" d="M78.3,106.9c-5.9-0.1-11.8-1.5-17.2-4c-7.6-3.5-12.8-8.7-14.7-14.5c-0.6-1.8,0.4-3.8,2.3-4.4
			c1.8-0.6,3.8,0.4,4.4,2.3c1.2,3.9,5.2,7.6,10.9,10.3c7.1,3.3,15.6,4.3,20.2,2.3c1.8-0.7,3.8,0.1,4.6,1.9c0.7,1.8-0.1,3.8-1.9,4.6
			C84.2,106.4,81.3,107,78.3,106.9z"/>
		<path class="st0" d="M49.8,90.9c-0.2,0-0.4,0-0.6-0.1c-1.9-0.3-3.2-2.1-2.8-4c1.2-7-0.6-17.6-7.3-24.2c-1.4-1.3-1.6-3.5-0.3-4.9
			s3.5-1.6,4.9-0.3c0.1,0.1,0.1,0.1,0.2,0.2C52.5,66,54.8,79.2,53.3,88C53,89.7,51.5,90.9,49.8,90.9z"/>
		<path class="st0" d="M104.4,127c-0.5,0-0.9,0-1.4-0.1c-9-0.9-13.6-11.2-14.3-13.9c-1.8-6.6-1.4-13.2-1-20.2
			c0.4-6,0.7-12.2-0.4-18.7c-1.2-7-4.8-13.3-10.3-17.8c-1.5-1.2-1.8-3.4-0.6-4.9s3.4-1.8,4.9-0.6c0.1,0.1,0.1,0.1,0.2,0.2
			c6.8,5.6,11.3,13.4,12.7,22.1c1.3,7.2,0.9,13.8,0.5,20.3s-0.7,12.4,0.8,18c0.5,1.8,3.8,8.4,8.3,8.8c2.7,0.2,5.3-0.7,7.3-2.5
			c1.5-1.4,2.4-3.4,2.3-5.4V61.6c0-16.3-13.3-29.6-29.6-29.6c-6.9,0-14.4,3-22.1,8.8c-1.5,1.2-3.7,1-4.9-0.5s-1-3.7,0.5-4.9
			c0.1-0.1,0.1-0.1,0.2-0.2c9-6.8,17.8-10.2,26.3-10.2c20.2,0,36.6,16.4,36.6,36.6v50.5c0.1,4-1.6,7.9-4.6,10.6
			C112.6,125.4,108.6,127,104.4,127z"/>
		<path class="st0" d="M40.6,62c-0.7,0-1.3-0.2-1.9-0.6c-1.6-1.1-2.1-3.2-1-4.8c2-3.1,4.3-6.2,6.7-9c1.3-1.5,3.5-1.6,4.9-0.4
			c1.5,1.3,1.6,3.5,0.4,4.9l0,0c-2.2,2.6-4.3,5.4-6.2,8.2C42.9,61.4,41.8,62,40.6,62z"/>
		<path class="st0" d="M69.7,139.4c-2.8,0-5.5-0.2-8.3-0.5c-4.5-0.4-8.5-3-10.7-6.9c-3.4-6-2.4-13.2-1.4-20.2c0.5-3,0.8-6,0.9-9.1
			c0-10-8.1-18.1-18.2-18.1c-2.5,0-5,0.5-7.4,1.6c-1.8,0.8-3.8,0-4.6-1.8s0-3.8,1.8-4.6l0,0c12.7-5.7,27.6,0,33.2,12.7
			c1.4,3.2,2.2,6.7,2.2,10.2c-0.1,3.4-0.4,6.7-1,10c-0.8,6.1-1.7,11.9,0.5,15.7c1.1,2,3.2,3.3,5.5,3.5c11.9,1.5,18.7-0.6,25.9-2.9
			c10.1-3.2,20.6-6.4,43.6,1.6c1.8,0.6,2.8,2.6,2.1,4.5c-0.6,1.8-2.6,2.8-4.5,2.2l0,0c-20.9-7.3-29.4-4.6-39.2-1.6
			C84.7,137.5,78.5,139.4,69.7,139.4z"/>
		<path class="st0" d="M22.8,86.8c-0.2,0-0.5,0-0.7-0.1c-1.9-0.4-3.1-2.2-2.7-4.1l0,0c2.8-13.5,12.5-22.1,18.3-26.2l0.8-1
			c1.2-1.5,3.4-1.7,4.9-0.5s1.7,3.4,0.5,4.9l-1.1,1.4c-0.2,0.3-0.5,0.5-0.7,0.7c-5,3.4-13.5,10.7-15.9,22.1
			C25.9,85.6,24.4,86.8,22.8,86.8z"/>
		<path class="st0" d="M64.2,77.2c-5.3,0-9.5-4.3-9.5-9.5c0-5.3,4.3-9.5,9.5-9.5c5.3,0,9.5,4.3,9.5,9.5l0,0
			C73.7,72.9,69.4,77.2,64.2,77.2z M64.2,65.2c-1.4,0-2.5,1.1-2.5,2.5s1.1,2.5,2.5,2.5s2.5-1.1,2.5-2.5l0,0
			C66.7,66.3,65.6,65.2,64.2,65.2C64.2,65.2,64.2,65.1,64.2,65.2L64.2,65.2z"/>
		<path class="st0" d="M53.1,55.4c-6.5,0-11.7-5.3-11.7-11.7S46.7,32,53.1,32s11.7,5.3,11.7,11.7l0,0C64.8,50.1,59.6,55.4,53.1,55.4
			z M53.1,38.9c-2.6,0-4.7,2.1-4.7,4.7c0,2.6,2.1,4.7,4.7,4.7c2.6,0,4.7-2.1,4.7-4.7l0,0C57.8,41,55.7,38.9,53.1,38.9z"/>
		<path class="st0" d="M71.1,61c-7.3,0.1-13.3-5.8-13.4-13.1s5.8-13.3,13.1-13.4c2.2,0,4.3,0.5,6.2,1.5c3.1,1.6,5.5,4.4,6.6,7.7
			c2.2,7-1.6,14.4-8.6,16.7C73.8,60.8,72.4,61,71.1,61z M71.1,41.5c-3.5,0-6.3,2.8-6.3,6.2c0,3.5,2.8,6.3,6.2,6.3
			c3.5,0,6.3-2.8,6.3-6.2c0-0.7-0.1-1.3-0.3-1.9C76.2,43.3,73.8,41.5,71.1,41.5L71.1,41.5z"/>
		<path class="st0" d="M108.8,156.4H55.3c-10.2,0-19.6-5.4-24.7-14.2L3.8,95.8c-5.1-8.8-5.1-19.7,0-28.5l26.8-46.4
			c5.1-8.8,14.5-14.2,24.7-14.2h53.5c10.2,0,19.6,5.4,24.7,14.2l26.8,46.4c5.1,8.8,5.1,19.7,0,28.5l-26.8,46.4
			C128.4,150.9,119,156.4,108.8,156.4z M55.3,13.6c-7.7,0-14.8,4.1-18.6,10.7L9.9,70.8C6,77.4,6,85.6,9.9,92.2l26.8,46.4
			c3.8,6.6,10.9,10.7,18.6,10.8h53.5c7.7,0,14.8-4.1,18.6-10.8l26.8-46.4c3.8-6.7,3.8-14.8,0-21.5l-26.8-46.4l0,0
			c-3.8-6.6-10.9-10.7-18.6-10.8L55.3,13.6z"/>
	</g>
</g>
</svg>
