<svg xmlns="http://www.w3.org/2000/svg" viewBox="0 0 373.89 163.19"><g id="Layer_2" data-name="Layer 2"><g id="Logo"><path d="M77.52,106.2a41.11,41.11,0,0,1-16.82-3.9c-7.4-3.43-12.45-8.42-14.22-14a2.7,2.7,0,1,1,5.15-1.62c1.29,4.09,5.42,8,11.34,10.76,7.28,3.38,16,4.37,20.85,2.35a2.7,2.7,0,0,1,2.09,5A21.84,21.84,0,0,1,77.52,106.2Z"/><path d="M49.05,90.15a2.45,2.45,0,0,1-.46,0A2.7,2.7,0,0,1,46.39,87c1.25-7.21-.59-18.09-7.57-24.93a2.7,2.7,0,0,1,3.77-3.86C51,66.41,53.2,79.35,51.71,87.91A2.71,2.71,0,0,1,49.05,90.15Z"/><path d="M103.51,126.33a11.73,11.73,0,0,1-1.22-.06c-8.43-.81-13-10.9-13.66-13.35-1.78-6.5-1.39-13-1-20,.36-6.06.74-12.32-.4-18.83A30.23,30.23,0,0,0,76.69,55.76a2.7,2.7,0,0,1,3.45-4.16A35.58,35.58,0,0,1,92.57,73.18c1.24,7.13.85,13.71.47,20.08s-.75,12.59.8,18.23c.53,1.93,4,8.93,9,9.41a11.21,11.21,0,0,0,8-2.69,7.8,7.8,0,0,0,2.57-6V61.69a30.44,30.44,0,0,0-30.4-30.4c-7.11,0-14.71,3-22.56,9A2.7,2.7,0,0,1,57.12,36c8.81-6.68,17.5-10.07,25.82-10.07a35.84,35.84,0,0,1,35.8,35.8V112.2a13.15,13.15,0,0,1-4.34,10A16.54,16.54,0,0,1,103.51,126.33Z"/><path d="M39.78,61.34a2.65,2.65,0,0,1-1.46-.44,2.69,2.69,0,0,1-.8-3.73,85.2,85.2,0,0,1,6.67-8.9,2.7,2.7,0,0,1,4.1,3.51,79.3,79.3,0,0,0-6.23,8.32A2.72,2.72,0,0,1,39.78,61.34Z"/><path d="M69,138.72a68,68,0,0,1-8.27-.54,13.18,13.18,0,0,1-10.12-6.51C47.42,126,48.41,118.89,49.37,112a67.61,67.61,0,0,0,.89-9.19A18.95,18.95,0,0,0,23.6,85.56a2.7,2.7,0,0,1-2.21-4.93,24.35,24.35,0,0,1,34.27,22.21,73.39,73.39,0,0,1-.94,9.94c-.87,6.24-1.7,12.13.59,16.17a7.77,7.77,0,0,0,6.11,3.87c12.1,1.5,19.29-.76,26.25-2.94,10-3.13,20.31-6.37,43.12,1.63A2.7,2.7,0,1,1,129,136.6C107.88,129.2,98.85,132,89.28,135,83.49,136.85,77.54,138.72,69,138.72Z"/><path d="M22,86.08a2.57,2.57,0,0,1-.55-.06,2.7,2.7,0,0,1-2.1-3.19c2.74-13.29,12.35-21.74,18.07-25.72l.86-1a2.7,2.7,0,0,1,4.2,3.39l-1.11,1.37a2.87,2.87,0,0,1-.57.53c-5,3.41-13.75,10.88-16.16,22.57A2.71,2.71,0,0,1,22,86.08Z"/><path d="M63.38,76.49a8.73,8.73,0,1,1,8.73-8.73A8.73,8.73,0,0,1,63.38,76.49Zm0-12a3.33,3.33,0,1,0,3.33,3.32A3.32,3.32,0,0,0,63.38,64.44Z"/><path d="M52.29,54.66A10.93,10.93,0,1,1,63.22,43.73,10.94,10.94,0,0,1,52.29,54.66Zm0-16.46a5.53,5.53,0,1,0,5.53,5.53A5.54,5.54,0,0,0,52.29,38.2Z"/><path d="M70.25,60.31A12.45,12.45,0,1,1,82.1,44h0a12.47,12.47,0,0,1-11.85,16.3Zm0-19.5a7.23,7.23,0,0,0-2.18.34,7.08,7.08,0,1,0,2.18-.34Z"/><path d="M108,155.66H54.46a27.78,27.78,0,0,1-24-13.85L3.7,95.45a27.79,27.79,0,0,1,0-27.7L30.47,21.38a27.78,27.78,0,0,1,24-13.85H108a27.78,27.78,0,0,1,24,13.85l26.77,46.37a27.74,27.74,0,0,1,0,27.7L132,141.81A27.78,27.78,0,0,1,108,155.66ZM54.46,12.93A22.38,22.38,0,0,0,35.14,24.08L8.38,70.45a22.34,22.34,0,0,0,0,22.3l26.76,46.36a22.38,22.38,0,0,0,19.32,11.15H108a22.36,22.36,0,0,0,19.32-11.15l26.77-46.36a22.37,22.37,0,0,0,0-22.3L127.31,24.08h0A22.36,22.36,0,0,0,108,12.93Z"/><path d="M221,163.19c-10,0-17.27-2.44-23.66-7.92-5.1-4.46-5.1-6.06-5.1-6.59A2.57,2.57,0,0,1,194.8,146c1.44,0,2.16.88,3,1.91a29.1,29.1,0,0,0,3.61,3.74c5.09,4.36,11.5,6.48,19.59,6.48,10.24,0,17.84-2.84,22.59-8.44s6.86-13.68,6.86-24.7v-9.19c-7.28,6.32-15.84,9.29-26.64,9.29-10.63,0-19.55-4.15-25.79-12-6-7.54-9.3-18.3-9.3-30.3s3.43-22.88,9.66-30.49,14.94-11.63,25.25-11.63c13.12,0,20.87,4.23,26.82,8.76v-6a2.73,2.73,0,1,1,5.46,0v81.59c0,12.41-2.71,21.59-8.28,28.06C241.81,159.76,232.85,163.19,221,163.19Zm2.63-117.46A26.25,26.25,0,0,0,202,56.22c-5,6.63-7.78,16-7.78,26.52,0,10.9,2.76,20.44,7.77,26.86,5.23,6.86,12.58,10.32,21.85,10.32,11.19,0,19-3.21,26.64-11.06V55.66C244.92,51.12,237.91,45.73,223.63,45.73Z"/><path d="M283.77,125.21a2.7,2.7,0,0,1-2.73-2.73V43.35a2.73,2.73,0,1,1,5.46,0v79.13A2.7,2.7,0,0,1,283.77,125.21ZM283.59,7A3.53,3.53,0,0,1,280,3.43,3.49,3.49,0,0,1,283.59,0,3.44,3.44,0,0,1,287,3.43,3.49,3.49,0,0,1,283.59,7Zm0-4c-.35,0-.61.18-.61.43a.54.54,0,0,0,.61.61c.26,0,.44-.25.44-.61A.46.46,0,0,0,283.59,3Z"/><path d="M339,163.19c-10,0-17.26-2.44-23.66-7.92-5.09-4.46-5.09-6.06-5.09-6.59a2.56,2.56,0,0,1,2.55-2.73c1.45,0,2.17.88,3,1.91a29.1,29.1,0,0,0,3.61,3.74c5.09,4.36,11.5,6.48,19.58,6.48,10.25,0,17.85-2.84,22.6-8.44s6.85-13.68,6.85-24.7v-9.19c-7.28,6.32-15.83,9.29-26.63,9.29-10.64,0-19.56-4.15-25.8-12-6-7.54-9.29-18.3-9.29-30.3s3.43-22.88,9.66-30.49,14.94-11.63,25.25-11.63c13.12,0,20.86,4.23,26.81,8.76v-6a2.73,2.73,0,1,1,5.46,0v81.59c0,12.41-2.7,21.59-8.27,28.06C359.79,159.76,350.83,163.19,339,163.19Zm2.64-117.46A26.27,26.27,0,0,0,320,56.22c-5,6.63-7.78,16-7.78,26.52,0,10.9,2.76,20.44,7.77,26.86,5.24,6.86,12.59,10.32,21.86,10.32,11.19,0,18.95-3.21,26.63-11.06V55.66C362.9,51.12,355.89,45.73,341.62,45.73Z"/></g></g></svg>