<svg xmlns="http://www.w3.org/2000/svg" viewBox="0 0 373.19 161.69"><defs><style>.cls-1{fill:#211d1d;}</style></defs><g id="Layer_2" data-name="Layer 2"><g id="Logo"><path class="cls-1" d="M194.85,146.7c1.4,0,1.4,1.58,5.62,5.27,6.16,5.28,13.37,6.86,20.58,6.86,11.08,0,18.81-3.16,23.74-9,4.92-6,7.21-14.59,7.21-25.67V111.53c-8.62,8.79-18.12,11.26-28.14,11.26-11.08,0-19.17-4.58-24.62-11.44-6.15-7.73-9-18.46-9-29.36s3-21.81,9.31-29.54c5.46-6.68,13.54-11.08,24.1-11.08,14.77,0,22.33,5.45,28.31,10.37V42.6a1.23,1.23,0,0,1,2.46,0v81.59c0,11.61-2.46,20.75-7.92,27.08s-13.89,9.67-25.49,9.67c-9.5,0-16.53-2.28-22.69-7.56-2.81-2.46-4.57-4.57-4.57-5.45C193.79,147.23,194.14,146.7,194.85,146.7Zm57.15-38V54.21c-6-4.93-13.19-10.73-28.31-10.73-10.2,0-17.76,4.4-22.86,11.08-5.46,7.21-8.09,17-8.09,27.43s2.46,20.57,8.09,27.78c5.1,6.68,12.66,10.9,23,10.9C235.82,120.67,244.08,117,252,108.72Z"/><path class="cls-1" d="M221.05,161.69c-9.78,0-16.93-2.39-23.17-7.74-1.81-1.58-4.84-4.46-4.84-6a1.8,1.8,0,0,1,1.81-2c1.08,0,1.62.65,2.42,1.63a29.18,29.18,0,0,0,3.7,3.83c5.23,4.49,11.8,6.67,20.08,6.67,10.47,0,18.26-2.93,23.16-8.7,4.73-5.74,7-14,7-25.19V113.32c-7.41,7-16.16,10.22-27.39,10.22-10.4,0-19.11-4.06-25.2-11.72-5.89-7.4-9.13-18-9.13-29.83S192.9,59.45,199,52s14.59-11.35,24.68-11.35c13.79,0,21.54,4.76,27.56,9.55V42.6a2,2,0,0,1,4,0v81.59c0,12.23-2.65,21.24-8.1,27.57C241.44,158.35,232.67,161.69,221.05,161.69Zm-26.2-14.24c-.11,0-.31,0-.31.48,0,.3.85,1.85,4.32,4.89,5.95,5.1,12.79,7.37,22.19,7.37,11.16,0,19.55-3.16,24.93-9.41,5.2-6,7.73-14.74,7.73-26.59V42.6a.46.46,0,0,0-.48-.48.45.45,0,0,0-.48.48V53.33l-1.23-1c-6.27-5.16-13.58-10.2-27.83-10.2-9.62,0-17.75,3.74-23.51,10.8C194.27,60.13,191,70.46,191,82s3.12,21.76,8.8,28.9c5.8,7.29,14.11,11.15,24,11.15,11.61,0,20.12-3.41,27.6-11l1.29-1.32v14.5c0,11.57-2.42,20.12-7.38,26.15-5.21,6.14-13.39,9.24-24.32,9.24-8.65,0-15.54-2.3-21.06-7a30,30,0,0,1-3.88-4C195.37,147.63,195.19,147.45,194.85,147.45Zm29-26c-10,0-18-3.76-23.63-11.19C194.92,103.42,192,93.39,192,82c0-10.95,2.92-20.86,8.24-27.88,5.68-7.45,13.79-11.38,23.46-11.38,15.55,0,22.89,6,28.78,10.9l.28.22V109l-.21.22C244.36,117.78,235.78,121.42,223.86,121.42Zm-.17-77.19A27,27,0,0,0,201.42,55c-5.11,6.77-7.93,16.35-7.93,27,0,11.07,2.81,20.77,7.93,27.32,5.37,7,12.92,10.61,22.44,10.61,11.37,0,19.58-3.44,27.39-11.5V54.56C245.58,49.9,238.46,44.23,223.69,44.23Z"/><path class="cls-1" d="M281.53,2.68A2,2,0,0,1,283.65.75a2,2,0,0,1,1.93,1.93,2,2,0,0,1-1.93,2.11A2,2,0,0,1,281.53,2.68Zm2.29,38.69a1.2,1.2,0,0,1,1.23,1.23v79.13a1.23,1.23,0,1,1-2.46,0V42.6A1.2,1.2,0,0,1,283.82,41.37Z"/><path class="cls-1" d="M283.82,123.71a2,2,0,0,1-2-2V42.6a2,2,0,0,1,4,0v79.13A2,2,0,0,1,283.82,123.71Zm0-81.59a.45.45,0,0,0-.48.48v79.13a.48.48,0,0,0,1,0V42.6A.45.45,0,0,0,283.82,42.12Zm-.17-36.58a2.77,2.77,0,1,1,0-5.54,2.68,2.68,0,0,1,2.68,2.68A2.74,2.74,0,0,1,283.65,5.54Zm0-4a1.26,1.26,0,0,0-1.37,1.18A1.29,1.29,0,0,0,283.65,4a1.25,1.25,0,0,0,1.18-1.36A1.2,1.2,0,0,0,283.65,1.5Z"/><path class="cls-1" d="M312.83,146.7c1.41,0,1.41,1.58,5.63,5.27,6.15,5.28,13.36,6.86,20.57,6.86,11.08,0,18.82-3.16,23.74-9,4.93-6,7.21-14.59,7.21-25.67V111.53c-8.61,8.79-18.11,11.26-28.13,11.26-11.08,0-19.17-4.58-24.62-11.44-6.16-7.73-9-18.46-9-29.36s3-21.81,9.32-29.54c5.45-6.68,13.54-11.08,24.09-11.08,14.77,0,22.33,5.45,28.31,10.37V42.6a1.23,1.23,0,1,1,2.46,0v81.59c0,11.61-2.46,20.75-7.91,27.08s-13.89,9.67-25.5,9.67c-9.49,0-16.52-2.28-22.68-7.56-2.81-2.46-4.57-4.57-4.57-5.45C311.78,147.23,312.13,146.7,312.83,146.7Zm57.15-38V54.21c-6-4.93-13.19-10.73-28.31-10.73-10.2,0-17.76,4.4-22.86,11.08-5.45,7.21-8.09,17-8.09,27.43s2.47,20.57,8.09,27.78c5.1,6.68,12.66,10.9,23,10.9C353.8,120.67,362.07,117,370,108.72Z"/><path class="cls-1" d="M339,161.69c-9.77,0-16.92-2.39-23.17-7.74-1.81-1.58-4.83-4.46-4.83-6a1.8,1.8,0,0,1,1.8-2c1.09,0,1.62.65,2.43,1.63a28.91,28.91,0,0,0,3.69,3.83c5.24,4.49,11.81,6.67,20.08,6.67,10.48,0,18.27-2.93,23.17-8.7,4.73-5.74,7-14,7-25.19V113.32c-7.4,7-16.15,10.22-27.38,10.22-10.4,0-19.12-4.06-25.21-11.72-5.89-7.4-9.13-18-9.13-29.83s3.37-22.54,9.49-30,14.59-11.35,24.67-11.35c13.79,0,21.55,4.76,27.56,9.55V42.6a2,2,0,0,1,4,0v81.59c0,12.23-2.64,21.24-8.09,27.57C359.42,158.35,350.65,161.69,339,161.69Zm-26.2-14.24c-.1,0-.3,0-.3.48,0,.3.84,1.85,4.31,4.89,6,5.1,12.8,7.37,22.19,7.37,11.17,0,19.56-3.16,24.93-9.41,5.21-6,7.73-14.74,7.73-26.59V42.6a.45.45,0,0,0-.48-.48.46.46,0,0,0-.48.48V53.33l-1.22-1c-6.27-5.16-13.59-10.2-27.84-10.2-9.61,0-17.74,3.74-23.51,10.8S309,70.46,309,82s3.13,21.76,8.81,28.9c5.79,7.29,14.1,11.15,24,11.15,11.61,0,20.12-3.41,27.6-11l1.28-1.32v14.5c0,11.57-2.41,20.12-7.38,26.15-5.2,6.14-13.38,9.24-24.32,9.24-8.64,0-15.53-2.3-21.06-7a29.71,29.71,0,0,1-3.87-4C313.36,147.63,313.18,147.45,312.83,147.45Zm29-26c-10,0-18-3.76-23.63-11.19C312.9,103.42,310,93.39,310,82c0-10.95,2.93-20.86,8.24-27.88,5.68-7.45,13.8-11.38,23.46-11.38,15.56,0,22.89,6,28.79,10.9l.27.22V109l-.21.22C362.34,117.78,353.77,121.42,341.85,121.42Zm-.18-77.19A27,27,0,0,0,319.41,55c-5.12,6.77-7.94,16.35-7.94,27,0,11.07,2.82,20.77,7.93,27.32,5.38,7,12.93,10.61,22.45,10.61,11.37,0,19.57-3.44,27.38-11.5V54.56C363.57,49.9,356.45,44.23,341.67,44.23Z"/><path class="cls-1" d="M76.82,104.75a40.47,40.47,0,0,1-16.53-3.84c-7.22-3.34-12.14-8.18-13.85-13.61a2,2,0,1,1,3.82-1.2c1.37,4.34,5.53,8.32,11.71,11.19,7.57,3.5,16.38,4.48,21.42,2.36a2,2,0,1,1,1.54,3.69A21.18,21.18,0,0,1,76.82,104.75Z"/><path class="cls-1" d="M48.35,88.7l-.34,0a2,2,0,0,1-1.63-2.31c1.28-7.39-.61-18.53-7.77-25.55A2,2,0,0,1,41.4,58C49.61,66,51.78,78.66,50.32,87A2,2,0,0,1,48.35,88.7Z"/><path class="cls-1" d="M102.82,124.88c-.41,0-.8,0-1.17,0-8-.77-12.39-10.48-13-12.85-1.76-6.38-1.37-12.88-1-19.75.36-6.1.74-12.4-.41-19a31,31,0,0,0-10.8-18.77A2,2,0,0,1,79,51.39,34.89,34.89,0,0,1,91.18,72.55c1.23,7,.84,13.59.46,19.92-.39,6.53-.75,12.7.83,18.45.56,2,4.22,9.41,9.56,9.92a11.71,11.71,0,0,0,8.51-2.86,8.46,8.46,0,0,0,2.8-6.53V60.94a31.13,31.13,0,0,0-31.1-31.1c-7.27,0-15,3.07-23,9.11a2,2,0,0,1-2.42-3.19c8.69-6.58,17.24-9.92,25.4-9.92a35.14,35.14,0,0,1,35.1,35.1v50.51a12.49,12.49,0,0,1-4.11,9.49A15.87,15.87,0,0,1,102.82,124.88Z"/><path class="cls-1" d="M39.08,59.89A2.05,2.05,0,0,1,38,59.57a2,2,0,0,1-.59-2.77A82.66,82.66,0,0,1,44,48a2,2,0,1,1,3,2.6A79.35,79.35,0,0,0,40.77,59,2,2,0,0,1,39.08,59.89Z"/><path class="cls-1" d="M68.32,137.27a66.53,66.53,0,0,1-8.18-.54,12.5,12.5,0,0,1-9.6-6.17c-3.09-5.47-2.12-12.44-1.18-19.18a69.74,69.74,0,0,0,.9-9.28A19.65,19.65,0,0,0,22.61,84.17,2,2,0,1,1,21,80.52,23.65,23.65,0,0,1,54.26,102.1a74.16,74.16,0,0,1-.93,9.84c-.89,6.35-1.73,12.36.67,16.6a8.44,8.44,0,0,0,6.64,4.23c12.24,1.51,19.51-.76,26.54-3,10.33-3.24,20.08-6.3,42.68,1.62a2,2,0,1,1-1.33,3.77c-21.34-7.48-30.48-4.61-40.16-1.57C82.63,135.42,76.74,137.27,68.32,137.27Z"/><path class="cls-1" d="M21.29,84.63a2.85,2.85,0,0,1-.41,0,2,2,0,0,1-1.56-2.37C22,69.1,31.57,60.77,37.2,56.88l.92-1.13a2,2,0,1,1,3.1,2.52l-1.1,1.36a1.79,1.79,0,0,1-.43.39c-5.08,3.47-14,11.08-16.45,23A2,2,0,0,1,21.29,84.63Z"/><path class="cls-1" d="M62.68,75a8,8,0,1,1,8-8A8,8,0,0,1,62.68,75Zm0-12.05a4,4,0,1,0,4,4A4,4,0,0,0,62.68,63Z"/><path class="cls-1" d="M51.59,53.21A10.23,10.23,0,1,1,61.82,43,10.24,10.24,0,0,1,51.59,53.21Zm0-16.46A6.23,6.23,0,1,0,57.82,43,6.23,6.23,0,0,0,51.59,36.75Z"/><path class="cls-1" d="M69.55,58.86a11.75,11.75,0,0,1-3.62-22.93,11.78,11.78,0,0,1,14.81,7.55h0A11.77,11.77,0,0,1,69.55,58.86Zm0-19.5A7.75,7.75,0,1,0,72,54.47a7.75,7.75,0,0,0,5-9.76h0A7.76,7.76,0,0,0,69.56,39.36Z"/><path class="cls-1" d="M107.3,154.21H53.76a27.08,27.08,0,0,1-23.39-13.5L3.61,94.35a27.06,27.06,0,0,1,0-27L30.37,21A27.08,27.08,0,0,1,53.76,7.48H107.3A27.07,27.07,0,0,1,130.68,21h0l26.77,46.37a27.06,27.06,0,0,1,0,27l-26.77,46.36A27.07,27.07,0,0,1,107.3,154.21ZM53.76,11.48A23.07,23.07,0,0,0,33.84,23L7.07,69.35a23,23,0,0,0,0,23l26.77,46.36a23,23,0,0,0,19.92,11.5H107.3a23,23,0,0,0,19.91-11.5L154,92.35a23,23,0,0,0,0-23L127.21,23a23.05,23.05,0,0,0-19.91-11.5Z"/></g></g></svg>