<svg width="37" height="39" fill="none" xmlns="http://www.w3.org/2000/svg"><path d="M17.024 5A16.956 16.956 0 0 0 5.02 9.979a17.011 17.011 0 0 0-4.972 12.02 16.827 16.827 0 0 0 3.836 10.76L.49 36.16a1.7 1.7 0 0 0-.356 1.854A1.7 1.7 0 0 0 1.746 39h15.279c4.502 0 8.82-1.791 12.004-4.98A17.01 17.01 0 0 0 34 22a17.01 17.01 0 0 0-4.972-12.02A16.964 16.964 0 0 0 17.024 5Zm0 30.599H5.837l1.578-1.581a1.701 1.701 0 0 0 0-2.397 13.614 13.614 0 0 1-1.699-17.17 13.582 13.582 0 0 1 7.347-5.463 13.563 13.563 0 0 1 9.139.444 13.588 13.588 0 0 1 6.784 6.148 13.616 13.616 0 0 1-3.35 16.925 13.57 13.57 0 0 1-8.612 3.094Z" fill="#211D1D"/><circle cx="28" cy="9" r="9" fill="#FF692C"/><path d="M25.343 13a.303.303 0 0 1-.204-.072.303.303 0 0 1-.072-.204v-.384c0-.072.02-.152.06-.24a.91.91 0 0 1 .24-.288l2.543-2.544c.409-.344.729-.636.96-.876.24-.248.409-.484.505-.708.104-.224.155-.456.155-.696 0-.456-.128-.816-.384-1.08-.256-.272-.636-.408-1.14-.408-.32 0-.596.068-.828.204a1.431 1.431 0 0 0-.552.54 2.12 2.12 0 0 0-.252.768c-.015.104-.06.176-.131.216a.343.343 0 0 1-.18.06h-.624a.272.272 0 0 1-.18-.06.23.23 0 0 1-.073-.168 2.71 2.71 0 0 1 .192-.912 2.57 2.57 0 0 1 .529-.84c.24-.248.532-.448.875-.6.352-.16.76-.24 1.224-.24.633 0 1.148.116 1.549.348.407.224.707.524.9.9.192.376.288.788.288 1.236 0 .352-.06.676-.18.972-.12.288-.296.572-.528.852a6.92 6.92 0 0 1-.84.84l-2.305 2.34h3.744c.088 0 .157.024.204.072a.254.254 0 0 1 .084.204v.492c0 .08-.027.148-.084.204-.047.048-.116.072-.204.072h-5.291Z" fill="#000"/></svg>