<svg width="191" height="35" fill="none" xmlns="http://www.w3.org/2000/svg"><path d="m17.5 0 3.929 12.092h12.715l-10.287 7.474 3.93 12.092L17.5 24.184 7.214 31.658l3.929-12.092L.857 12.092H13.57L17.5 0Zm38.89 0 3.928 12.092h12.715l-10.287 7.474 3.93 12.092-10.287-7.474-10.286 7.474 3.929-12.092-10.286-7.474H52.46L56.39 0Zm38.888 0 3.929 12.092h12.714l-10.286 7.474 3.929 12.092-10.286-7.474-10.287 7.474 3.93-12.092-10.287-7.474H91.35L95.278 0Zm38.888 0 3.929 12.092h12.715l-10.286 7.474 3.929 12.092-10.287-7.474-10.286 7.474 3.929-12.092-10.286-7.474h12.714L134.166 0Zm38.89 0 3.929 12.092H189.7l-10.287 7.474 3.929 12.092-10.286-7.474-10.286 7.474 3.929-12.092-10.286-7.474h12.714L173.056 0Z" fill="#000"/></svg>